<svg xmlns="http://www.w3.org/2000/svg" width="20.87" height="15.36" viewBox="0 0 20.87 15.36"><defs><style>.a{fill:#cdcdcd;}</style></defs><path class="a" d="M47.113,162.983H43.576a.909.909,0,0,1-.909-.909v-5.456a.909.909,0,0,1,.909-.909h3.537l4.814-3.939a.455.455,0,0,1,.743.352v14.45a.455.455,0,0,1-.743.352l-4.813-3.939Zm13.209-3.638,3.216,3.216-1.286,1.286-3.216-3.216-3.216,3.216-1.286-1.286,3.216-3.216-3.216-3.216,1.286-1.286,3.216,3.216,3.216-3.216,1.286,1.286Z" transform="translate(-42.667 -151.666)"/></svg>